<svg width="30" height="30" viewBox="0 0 30 30" fill="none" xmlns="http://www.w3.org/2000/svg">
<path d="M26.2497 3.75L18.1247 26.25C18.0699 26.3697 17.9818 26.4711 17.871 26.5422C17.7602 26.6133 17.6314 26.6511 17.4997 26.6511C17.3681 26.6511 17.2392 26.6133 17.1284 26.5422C17.0176 26.4711 16.9296 26.3697 16.8747 26.25L12.4997 17.5L3.74972 13.125C3.63004 13.0702 3.52863 12.9821 3.45753 12.8713C3.38643 12.7605 3.34863 12.6316 3.34863 12.5C3.34863 12.3684 3.38643 12.2395 3.45753 12.1287C3.52863 12.0179 3.63004 11.9298 3.74972 11.875L26.2497 3.75Z" stroke="#E21F4D" stroke-width="2.875" stroke-linecap="round" stroke-linejoin="round"/>
</svg>
