<svg width="13" height="13" viewBox="0 0 13 13" fill="none" xmlns="http://www.w3.org/2000/svg">
<path d="M11.5955 10.6995L9.20671 8.31079C9.78192 7.54496 10.0924 6.61279 10.0912 5.655C10.0912 3.20883 8.10117 1.21875 5.655 1.21875C3.20883 1.21875 1.21875 3.20883 1.21875 5.655C1.21875 8.10117 3.20883 10.0912 5.655 10.0912C6.61261 10.0923 7.54457 9.78181 8.31025 9.20671L10.699 11.5955C10.8195 11.706 10.9779 11.7658 11.1414 11.7623C11.3048 11.7588 11.4606 11.6923 11.5762 11.5768C11.6919 11.4612 11.7584 11.3055 11.762 11.142C11.7656 10.9786 11.7059 10.8201 11.5955 10.6995ZM2.48625 5.655C2.48625 5.02828 2.67209 4.41563 3.02028 3.89454C3.36847 3.37344 3.86336 2.96729 4.44237 2.72746C5.02139 2.48762 5.65852 2.42487 6.27319 2.54714C6.88787 2.6694 7.45249 2.9712 7.89564 3.41436C8.3388 3.85751 8.6406 4.42213 8.76286 5.03681C8.88513 5.65148 8.82238 6.28861 8.58254 6.86763C8.34271 7.44664 7.93656 7.94153 7.41546 8.28972C6.89436 8.63791 6.28172 8.82375 5.655 8.82375C4.8149 8.82275 4.0095 8.48857 3.41546 7.89454C2.82143 7.3005 2.48725 6.4951 2.48625 5.655Z" fill="#8F8F8F"/>
</svg>
